<?xml version="1.0" encoding="UTF-8"?>
<svg id="Layer_2" data-name="Layer 2" xmlns="http://www.w3.org/2000/svg" viewBox="0 0 217.87 97.3">
  <defs>
    <style>
      .cls-1 {
        fill: #1a1a1a;
      }

      .cls-2 {
        fill: #f7931e;
      }

      .cls-3 {
        fill: #fbb03b;
      }
    </style>
  </defs>
  <g id="Layer_5" data-name="Layer 5">
    <g>
      <path class="cls-3" d="M131.67,0c-25.95,0-49.22,14.46-65.02,27.61,11.71,7.69,18.4,15.87,16.2,21.12-.27.65-.68,1.23-1.2,1.74-2.32,5.15-8.45,11.43-17.03,17.5,15.8,13.58,39.96,29.32,67.05,29.32,47.6,0,86.19-48.65,86.19-48.65,0,0-38.59-48.65-86.19-48.65ZM131.67,84.26c-14.6,0-26.44-4.19-26.44-9.35s11.84-9.35,26.44-9.35,26.44,4.19,26.44,9.35-11.84,9.35-26.44,9.35ZM174.3,48.65c-5.44,0-9.85-4.41-9.85-9.85s4.41-9.85,9.85-9.85,9.85,4.41,9.85,9.85-4.41,9.85-9.85,9.85Z"/>
      <path class="cls-2" d="M81.65,50.47c.52-.52.93-1.1,1.2-1.74,2.2-5.25-4.49-13.42-16.2-21.12-5.44-3.58-11.96-7.05-19.18-10.07C24.7,8,3.64,6.49.42,14.18c-3.22,7.69,12.62,21.65,35.39,31.19,1.87.78,3.72,1.5,5.55,2.18-1.97.87-3.96,1.81-5.96,2.81C13.34,61.45-1.5,76.47,2.25,83.92s24.66,4.49,46.71-6.59c5.8-2.91,11.08-6.1,15.67-9.35,8.58-6.07,14.71-12.36,17.03-17.5Z"/>
      <circle class="cls-1" cx="174.3" cy="38.8" r="9.85" transform="translate(-3.96 28.42) rotate(-9.22)"/>
      <ellipse class="cls-2" cx="131.67" cy="74.91" rx="26.44" ry="9.35"/>
    </g>
  </g>
</svg>