<?xml version="1.0" encoding="UTF-8"?>
<svg id="Layer_2" data-name="Layer 2" xmlns="http://www.w3.org/2000/svg" viewBox="0 0 217.87 97.3">
  <defs>
    <style>
      .cls-1 {
        fill: #3df9f9;
      }

      .cls-2 {
        fill: #225ef2;
      }

      .cls-3 {
        fill: #1a1a1a;
      }
    </style>
  </defs>
  <g id="Layer_5" data-name="Layer 5">
    <path class="cls-1" d="M217.87,48.65s-38.59,48.65-86.19,48.65S45.48,48.65,45.48,48.65c0,0,38.59-48.65,86.19-48.65s86.19,48.65,86.19,48.65Z"/>
    <path class="cls-2" d="M47.47,17.54C24.7,8,3.64,6.49.42,14.18c-3.22,7.69,12.62,21.65,35.39,31.19,1.87.78,3.72,1.5,5.55,2.18-1.97.87-3.96,1.81-5.96,2.81C13.34,61.45-1.5,76.47,2.25,83.92c3.74,7.45,24.66,4.49,46.71-6.59,16.62-8.36,29.15-18.95,32.7-26.85.52-.52.93-1.1,1.2-1.74,3.22-7.69-12.62-21.65-35.39-31.19Z"/>
    <circle class="cls-3" cx="174.3" cy="38.8" r="9.85"/>
    <ellipse class="cls-2" cx="131.67" cy="74.91" rx="26.44" ry="9.35"/>
  </g>
</svg>